<svg width="100" height="100" viewBox="0 0 100 100" fill="none" xmlns="http://www.w3.org/2000/svg">
<mask id="mask0_118_603" style="mask-type:luminance" maskUnits="userSpaceOnUse" x="6" y="6" width="88" height="88">
<path d="M49.9987 91.6669C55.4715 91.674 60.8917 90.5994 65.9479 88.505C71.0041 86.4106 75.5965 83.3376 79.4612 79.4627C83.3362 75.598 86.4091 71.0055 88.5035 65.9494C90.598 60.8932 91.6725 55.473 91.6654 50.0002C91.6724 44.5274 90.5978 39.1072 88.5034 34.0511C86.409 28.9949 83.3361 24.4025 79.4612 20.5377C75.5965 16.6628 71.0041 13.5898 65.9479 11.4954C60.8917 9.40097 55.4715 8.32644 49.9987 8.33353C44.526 8.32655 39.1058 9.40114 34.0496 11.4955C28.9935 13.5899 24.401 16.6628 20.5362 20.5377C16.6614 24.4025 13.5885 28.9949 11.4941 34.0511C9.39967 39.1072 8.32509 44.5274 8.33207 50.0002C8.32498 55.473 9.39951 60.8932 11.4939 65.9494C13.5883 71.0055 16.6613 75.598 20.5362 79.4627C24.401 83.3375 28.9935 86.4105 34.0496 88.5049C39.1058 90.5993 44.526 91.6738 49.9987 91.6669Z" fill="white" stroke="white" stroke-width="4" stroke-linejoin="round"/>
<path d="M33.332 50L45.832 62.5L70.832 37.5" stroke="black" stroke-width="4" stroke-linecap="round" stroke-linejoin="round"/>
</mask>
<g mask="url(#mask0_118_603)">
<path d="M0 0H100V100H0V0Z" fill="#4F50C0"/>
</g>
</svg>
